<?xml version="1.0" standalone="no"?>
<!DOCTYPE svg PUBLIC "-//W3C//DTD SVG 20010904//EN"
 "http://www.w3.org/TR/2001/REC-SVG-20010904/DTD/svg10.dtd">
<svg version="1.0" xmlns="http://www.w3.org/2000/svg"
 width="512.000000pt" height="512.000000pt" viewBox="0 0 512.000000 512.000000"
 preserveAspectRatio="xMidYMid meet">
<metadata>
Created by potrace 1.14, written by Peter Selinger 2001-2017
</metadata>
<g transform="translate(0.000000,512.000000) scale(0.100000,-0.100000)"
fill="#000000" stroke="none">
<path d="M2 5098 c3 -21 9 -23 64 -24 33 0 66 -4 72 -8 6 -3 17 1 26 10 14 13
18 13 36 1 11 -7 17 -17 12 -22 -4 -5 -1 -5 6 -1 7 4 10 11 7 16 -3 4 2 10 10
13 8 4 16 -2 20 -15 5 -14 10 -17 18 -9 14 14 30 15 22 1 -5 -8 15 -13 42 -9
4 1 13 -12 19 -28 l12 -28 7 27 c6 24 9 25 37 17 17 -4 34 -7 37 -4 4 2 13 -1
21 -7 13 -8 13 -9 -1 -5 -9 3 -22 1 -30 -4 -10 -6 -5 -9 18 -9 17 0 39 -3 47
-6 12 -5 15 -2 10 10 -3 9 -9 14 -13 11 -4 -2 -8 2 -8 9 0 15 44 19 53 5 3 -5
14 -4 25 1 15 8 19 7 19 -4 0 -10 6 -13 16 -9 11 4 12 8 4 13 -18 11 -14 21
16 36 33 17 55 18 52 2 -2 -9 9 -13 32 -13 19 0 40 -3 47 -8 6 -4 32 -8 57 -9
27 -2 42 -6 38 -13 -3 -5 1 -4 9 2 12 10 18 10 27 1 7 -7 12 -8 12 -4 0 5 7 3
15 -4 12 -10 18 -10 32 1 11 9 14 10 9 2 -5 -9 -2 -11 8 -7 9 3 12 12 9 21 -5
13 -2 15 15 11 12 -4 22 -2 22 3 0 17 62 38 85 29 12 -4 29 -4 39 2 12 7 22 6
34 -4 22 -18 82 -24 82 -8 0 10 3 10 14 1 8 -7 33 -10 60 -7 33 3 49 1 52 -8
4 -10 18 -11 57 -5 33 6 53 5 55 -1 2 -6 11 -10 20 -10 15 0 15 2 2 10 -8 5
-10 10 -5 11 6 0 19 3 30 5 50 11 116 14 110 4 -3 -5 1 -10 9 -10 9 0 16 6 16
13 0 8 2 9 8 1 4 -7 23 -16 43 -22 29 -8 40 -7 52 5 12 13 16 13 29 -1 9 -8
19 -12 23 -8 4 4 4 -4 0 -17 l-8 -25 26 27 c20 23 26 25 31 12 3 -9 10 -14 15
-10 5 3 12 1 15 -4 6 -10 66 15 77 32 9 12 29 0 29 -18 0 -8 4 -17 10 -20 6
-4 7 1 3 11 -5 13 -2 16 8 12 49 -20 49 -20 43 -4 -3 9 -1 16 5 16 6 0 11 -8
11 -17 0 -14 2 -15 9 -5 11 18 12 18 40 3 21 -11 23 -11 18 1 -4 11 1 15 16
14 12 -1 27 2 34 7 14 10 36 0 28 -14 -4 -5 0 -9 9 -9 8 0 17 6 19 13 4 9 6 9
6 -1 1 -8 6 -10 14 -6 9 6 9 5 0 -7 -10 -12 -8 -17 9 -28 19 -12 23 -11 38 9
17 23 17 23 15 -14 -2 -20 -1 -36 2 -36 13 0 59 47 56 57 -2 6 3 13 12 16 8 4
15 2 15 -2 0 -5 -4 -11 -9 -13 -5 -1 -3 -14 4 -28 l14 -25 1 24 c0 24 0 24 15
5 9 -12 13 -13 10 -4 -4 11 1 16 15 17 12 1 18 -2 14 -9 -4 -6 -3 -8 4 -4 6 3
13 2 17 -3 3 -6 12 -8 20 -4 8 3 15 0 15 -6 0 -6 5 -10 11 -9 6 2 14 -3 16
-10 3 -7 1 -12 -4 -11 -22 4 -33 -3 -33 -18 0 -15 2 -15 9 -4 12 19 43 23 53
8 6 -9 8 -8 8 2 0 10 4 11 13 3 8 -7 18 -6 32 5 16 12 16 14 3 10 -15 -5 -16
-3 -7 12 7 9 21 16 33 15 11 -1 28 -3 38 -3 11 -1 15 -7 11 -21 -4 -16 -2 -19
11 -14 9 4 16 3 15 -2 -1 -5 -1 -18 0 -29 1 -15 3 -17 10 -6 5 7 6 22 3 33 -3
15 -1 19 9 16 8 -3 19 1 26 8 10 9 9 19 -4 46 -13 25 -18 29 -21 16 -2 -10 -8
-18 -13 -18 -10 0 -7 34 4 38 4 1 19 2 33 2 19 0 25 -4 20 -15 -5 -13 -2 -13
18 1 18 11 26 12 31 3 8 -12 -11 -29 -32 -29 -7 0 -13 -7 -13 -15 0 -20 20
-19 35 2 13 17 35 10 35 -12 0 -8 11 -12 33 -11 21 0 31 -3 29 -11 -3 -18 6
-16 26 4 16 16 16 16 0 10 -11 -4 -15 -2 -12 6 2 7 24 12 49 13 24 0 42 -2 40
-6 -3 -4 3 -14 12 -21 9 -8 14 -9 10 -3 -10 17 18 25 34 11 9 -9 9 -7 -1 6
-12 17 -12 20 3 29 10 5 15 14 11 20 -4 7 0 7 12 0 11 -5 29 -8 42 -7 26 2 29
-1 36 -40 7 -38 20 -49 36 -30 7 9 9 15 4 14 -19 -3 -37 1 -30 9 7 7 11 8 37
11 5 0 7 6 4 11 -3 6 1 13 9 16 9 3 13 10 10 15 -3 5 0 9 6 9 6 0 8 -10 4 -26
-7 -25 -5 -27 22 -20 28 7 28 7 10 -13 -11 -12 -21 -19 -24 -16 -3 2 -14 -1
-25 -6 -16 -9 -17 -13 -6 -20 19 -12 32 -11 24 2 -4 6 2 5 14 -3 12 -7 21 -16
21 -21 0 -4 -5 -5 -10 -2 -6 4 -5 -5 2 -20 11 -24 13 -25 19 -8 3 10 4 24 2
31 -4 8 5 12 26 12 24 0 32 5 37 25 3 13 11 23 18 22 6 -1 10 6 10 15 -1 10 4
14 12 11 8 -3 14 -12 14 -20 0 -8 5 -11 10 -8 6 3 10 -3 10 -14 0 -12 -5 -21
-12 -21 -6 0 -9 -2 -7 -5 3 -2 15 -2 27 2 18 4 20 8 11 19 -7 8 -9 17 -6 21 4
3 2 12 -4 20 -9 10 -8 13 4 13 8 0 17 -6 20 -12 3 -10 7 -10 20 0 18 16 37 8
37 -14 0 -8 4 -13 9 -10 5 4 11 2 13 -2 1 -5 11 -1 22 9 18 17 17 18 -5 12
-18 -5 -21 -3 -16 11 4 9 3 14 -2 11 -5 -3 -12 -1 -16 5 -8 13 2 12 49 -4 22
-8 33 -16 25 -18 -8 -3 -11 -8 -8 -12 10 -11 38 5 33 19 -3 8 2 15 13 18 11 2
9 3 -4 2 -28 -3 -28 -1 -6 25 21 24 42 26 44 5 1 -8 2 -20 3 -27 0 -6 7 -13
15 -16 9 -3 12 0 9 9 -4 10 3 14 26 13 52 -3 54 -3 59 -21 4 -17 5 -17 6 0 0
9 6 17 12 17 6 0 9 -8 7 -18 -3 -11 0 -19 7 -19 7 0 11 6 8 13 -2 6 0 15 6 19
6 3 11 2 11 -4 0 -5 15 -9 34 -8 26 2 32 5 24 15 -6 6 -9 12 -7 13 41 7 69 7
64 0 -3 -5 -1 -12 5 -16 5 -3 10 0 10 7 0 8 10 14 23 15 12 0 16 -1 10 -4 -7
-3 -13 -12 -13 -21 0 -13 2 -14 9 -4 7 11 9 11 14 -2 3 -8 1 -17 -6 -20 -9 -3
-9 -5 0 -5 7 -1 10 -7 7 -14 -2 -7 4 -13 15 -14 11 -1 22 6 26 15 4 11 8 13
13 5 4 -6 14 3 25 24 9 19 13 32 8 29 -5 -3 -14 0 -20 8 -9 11 -7 15 9 19 11
3 18 1 14 -4 -3 -5 0 -9 6 -9 6 0 18 -7 27 -16 9 -8 22 -13 29 -10 20 7 17 -4
-4 -20 -16 -13 -16 -14 3 -7 11 3 23 11 27 17 11 17 97 16 91 -1 -3 -7 -9 -10
-14 -7 -5 3 -6 -2 -3 -11 6 -14 8 -13 20 4 15 21 49 21 68 0 8 -9 8 -10 -1 -5
-6 3 -14 2 -17 -2 -3 -5 15 -8 40 -8 36 1 44 4 41 17 -3 12 4 16 30 17 31 1
34 -1 28 -21 -5 -17 -4 -19 4 -7 10 13 14 11 31 -10 11 -14 20 -20 20 -14 0
20 39 24 49 6 12 -21 23 -11 25 20 l1 24 37 -18 c20 -10 39 -23 42 -30 4 -7 4
-3 2 10 -2 12 1 22 6 22 6 0 4 7 -3 17 -13 15 -12 15 9 2 12 -8 22 -17 22 -22
0 -4 -5 -5 -10 -2 -7 4 -8 -3 -4 -22 9 -36 13 -43 26 -43 7 0 6 6 -2 15 -7 8
-8 15 -2 15 5 0 8 14 7 32 -3 30 -2 31 11 13 8 -11 13 -31 12 -45 -3 -25 9
-29 52 -14 13 4 13 6 0 15 -11 8 -8 9 13 4 18 -3 26 -2 23 4 -4 5 -1 13 5 17
8 5 9 3 4 -6 -5 -9 -2 -10 14 -5 22 7 30 -10 8 -18 -6 -2 -9 -7 -6 -11 4 -4
22 0 40 8 26 12 28 15 9 11 -14 -3 -19 -2 -12 1 6 3 10 9 8 13 -3 4 4 8 15 8
10 1 19 -4 19 -10 0 -8 3 -7 9 2 5 7 20 13 35 14 20 0 26 5 27 21 0 21 0 21
11 -1 18 -38 28 -26 28 32 l0 55 -2561 0 -2560 0 3 -22z m3988 -18 c0 -5 -2
-10 -4 -10 -3 0 -8 5 -11 10 -3 6 -1 10 4 10 6 0 11 -4 11 -10z m-2073 -32
c-3 -7 -5 -2 -5 12 0 14 2 19 5 13 2 -7 2 -19 0 -25z m391 1 c-3 -8 -7 -3 -11
10 -4 17 -3 21 5 13 5 -5 8 -16 6 -23z m1619 9 c-3 -8 -6 -5 -6 6 -1 11 2 17
5 13 3 -3 4 -12 1 -19z m-1442 -8 c-3 -5 -14 -10 -23 -9 -14 0 -13 2 3 9 27
11 27 11 20 0z m135 0 c0 -5 -4 -10 -10 -10 -5 0 -10 5 -10 10 0 6 5 10 10 10
6 0 10 -4 10 -10z m-86 -15 c-4 -8 -10 -15 -14 -15 -4 0 -10 7 -14 15 -4 10 1
15 14 15 13 0 18 -5 14 -15z m141 4 c-4 -5 -1 -9 4 -9 6 0 11 -5 11 -11 0 -8
-4 -8 -15 1 -8 6 -19 9 -25 5 -5 -3 -10 0 -10 7 0 8 9 14 20 15 11 1 18 -2 15
-8z m1429 2 c4 -5 2 -20 -3 -33 -7 -16 -10 -18 -10 -6 -1 9 -4 23 -7 32 -6 17
11 23 20 7z m-1504 -11 c8 -5 11 -10 5 -10 -5 0 -17 5 -25 10 -8 5 -10 10 -5
10 6 0 17 -5 25 -10z m170 -10 c14 -10 22 -22 18 -25 -8 -8 -58 24 -58 36 0
14 13 10 40 -11z m587 14 c-3 -3 -12 -4 -19 -1 -8 3 -5 6 6 6 11 1 17 -2 13
-5z m-262 -14 c3 -5 1 -10 -4 -10 -6 0 -11 5 -11 10 0 6 2 10 4 10 3 0 8 -4
11 -10z m1552 4 c-3 -3 -12 -4 -19 -1 -8 3 -5 6 6 6 11 1 17 -2 13 -5z m-2282
-14 c3 -5 1 -10 -4 -10 -6 0 -11 5 -11 10 0 6 2 10 4 10 3 0 8 -4 11 -10z
m226 -7 c0 -11 3 -13 6 -5 6 16 20 15 26 -1 7 -19 -30 -15 -50 6 -16 16 -16
17 0 17 9 0 17 -8 18 -17z m811 -20 c-6 -2 -10 -8 -8 -12 3 -4 -1 -8 -9 -8
-11 0 -12 4 -4 14 6 7 17 13 23 12 7 0 6 -2 -2 -6z"/>
<path d="M1259 5067 c0 -1 -2 -15 -4 -32 -3 -27 -3 -28 7 -10 6 11 15 23 20
26 6 3 3 9 -6 12 -9 4 -16 5 -17 4z"/>
<path d="M3134 5029 c-3 -6 -2 -15 4 -21 6 -6 12 -6 17 3 6 8 4 10 -5 4 -10
-6 -12 -4 -7 8 7 19 2 23 -9 6z"/>
<path d="M770 5026 c0 -2 7 -9 15 -16 9 -7 15 -8 15 -2 0 5 -7 12 -15 16 -8 3
-15 4 -15 2z"/>
<path d="M4670 5001 c0 -5 6 -14 14 -20 11 -9 16 -9 21 0 4 6 1 15 -6 20 -18
11 -29 11 -29 0z"/>
<path d="M3012 4988 c5 -15 37 -18 41 -3 1 6 -9 12 -22 13 -16 3 -22 -1 -19
-10z"/>
<path d="M445 4980 c3 -5 8 -10 11 -10 2 0 4 5 4 10 0 6 -5 10 -11 10 -5 0 -7
-4 -4 -10z"/>
<path d="M3140 4959 c0 -5 5 -7 10 -4 6 3 10 8 10 11 0 2 -4 4 -10 4 -5 0 -10
-5 -10 -11z"/>
<path d="M4315 4960 c-3 -5 -1 -10 4 -10 6 0 11 5 11 10 0 6 -2 10 -4 10 -3 0
-8 -4 -11 -10z"/>
<path d="M3014 4948 c-4 -6 -3 -8 4 -4 5 3 13 0 15 -6 3 -8 6 -6 6 5 1 19 -14
23 -25 5z"/>
<path d="M2794 4939 c3 -17 43 -19 43 -3 0 9 -5 10 -18 4 -11 -6 -19 -6 -22 0
-3 6 -4 5 -3 -1z"/>
<path d="M3170 4940 c0 -5 7 -7 15 -4 8 4 15 8 15 10 0 2 -7 4 -15 4 -8 0 -15
-4 -15 -10z"/>
<path d="M3215 4930 c-8 -13 15 -13 35 0 12 8 11 10 -7 10 -12 0 -25 -4 -28
-10z"/>
<path d="M4985 4919 c-4 -6 -4 -13 -1 -16 3 -4 6 -1 6 6 0 7 5 9 10 6 6 -3 10
-1 10 4 0 14 -17 14 -25 0z"/>
<path d="M4605 4909 c-4 -6 -5 -12 -2 -15 2 -3 7 2 10 11 7 17 1 20 -8 4z"/>
<path d="M3235 4900 c3 -5 10 -10 16 -10 5 0 9 5 9 10 0 6 -7 10 -16 10 -8 0
-12 -4 -9 -10z"/>
<path d="M3435 4900 c3 -5 11 -10 16 -10 6 0 7 5 4 10 -3 6 -11 10 -16 10 -6
0 -7 -4 -4 -10z"/>
<path d="M3316 4875 c-9 -26 -7 -32 5 -12 6 10 9 21 6 23 -2 3 -7 -2 -11 -11z"/>
<path d="M2451 4847 c-14 -14 -14 -54 0 -62 7 -5 3 -15 -11 -30 -27 -29 -23
-56 13 -73 23 -11 32 -11 55 1 20 10 33 11 45 3 9 -6 20 -7 24 -2 4 4 0 12 -9
17 -14 8 -15 15 -8 35 13 33 13 34 -5 34 -8 0 -15 -9 -15 -20 0 -25 -12 -25
-34 -1 -17 19 -17 20 3 31 23 12 29 54 9 66 -19 12 -55 13 -67 1z m57 -30 c4
-22 -27 -35 -38 -16 -10 15 7 42 24 36 6 -2 12 -11 14 -20z m-8 -92 l23 -25
-36 0 c-33 0 -37 3 -37 25 0 14 6 25 13 25 8 0 24 -11 37 -25z"/>
<path d="M3255 4851 c-3 -5 -2 -12 3 -15 5 -3 9 1 9 9 0 17 -3 19 -12 6z"/>
<path d="M3390 4830 c0 -26 -4 -30 -28 -30 -38 0 -52 -17 -52 -61 0 -46 20
-64 68 -61 45 4 51 9 54 50 1 17 7 32 12 32 6 0 5 5 -2 12 -7 7 -12 29 -12 50
0 31 -4 38 -20 38 -16 0 -20 -7 -20 -30z m-5 -90 c0 -29 -4 -36 -22 -38 -19
-3 -23 1 -23 21 0 38 11 58 29 55 11 -2 16 -14 16 -38z"/>
<path d="M1717 4843 c-4 -3 -7 -42 -7 -85 0 -63 3 -78 15 -78 11 0 15 12 15
50 0 28 5 50 10 50 6 0 10 -9 10 -21 0 -26 30 -79 45 -79 6 0 23 28 38 63 l26
62 0 -62 c1 -49 4 -63 16 -63 12 0 15 16 15 86 0 83 -1 85 -22 82 -22 -3 -60
-59 -71 -104 -4 -18 -20 9 -48 84 -8 21 -29 29 -42 15z"/>
<path d="M2190 4840 c0 -5 7 -10 15 -10 8 0 15 5 15 10 0 6 -7 10 -15 10 -8 0
-15 -4 -15 -10z"/>
<path d="M2670 4765 l0 -85 45 0 c25 0 45 5 45 10 0 6 -13 10 -30 10 l-30 0 0
75 c0 60 -3 75 -15 75 -12 0 -15 -16 -15 -85z"/>
<path d="M3296 4828 c3 -5 10 -6 15 -3 13 9 11 12 -6 12 -8 0 -12 -4 -9 -9z"/>
<path d="M3230 4809 c0 -5 -14 -9 -31 -9 l-30 0 3 -62 c2 -35 7 -61 12 -60 5
2 13 -2 17 -10 14 -22 10 -29 -11 -18 -11 6 -20 7 -20 3 0 -5 9 -14 20 -21 27
-16 27 -68 1 -82 -29 -15 -56 -12 -74 8 -22 25 -21 48 3 72 11 11 16 20 12 20
-17 0 -42 -37 -42 -63 0 -49 79 -77 112 -39 16 18 31 112 18 112 -12 0 -20 70
-10 96 9 24 40 34 40 13 0 -5 -6 -7 -12 -3 -10 6 -10 4 0 -7 6 -7 12 -28 12
-46 0 -26 4 -33 20 -33 18 0 19 6 16 54 -2 30 -7 59 -10 64 -8 13 -46 22 -46
11z"/>
<path d="M1945 4789 c-5 -8 1 -9 24 -4 27 6 31 4 31 -14 0 -16 -6 -21 -25 -21
-15 0 -29 -8 -36 -22 -10 -18 -8 -24 11 -40 15 -12 27 -15 38 -9 10 4 23 6 30
4 10 -4 12 9 10 53 l-3 59 -37 3 c-20 2 -39 -2 -43 -9z m53 -85 c-17 -18 -38
-11 -38 11 0 16 31 25 45 13 5 -5 3 -14 -7 -24z"/>
<path d="M2072 4788 c-5 -7 -10 -43 -10 -81 0 -63 1 -67 24 -73 32 -8 70 2 78
21 10 28 -5 45 -39 45 -19 0 -37 5 -40 10 -3 6 4 10 17 10 33 0 49 13 51 41 0
13 6 27 12 31 5 4 -11 8 -36 8 -26 0 -51 -6 -57 -12z m56 -26 c3 -17 -2 -22
-17 -22 -14 0 -21 6 -21 18 0 38 33 41 38 4z m-4 -78 c28 -11 18 -34 -14 -34
-18 0 -30 5 -30 13 0 25 15 32 44 21z"/>
<path d="M2190 4740 c0 -47 3 -60 15 -60 12 0 15 13 15 60 0 47 -3 60 -15 60
-12 0 -15 -13 -15 -60z"/>
<path d="M2262 4788 c-6 -6 -12 -29 -12 -50 0 -47 35 -77 69 -58 29 15 26 28
-5 22 -40 -7 -58 35 -31 72 12 16 17 17 36 6 19 -10 23 -9 19 2 -6 17 -60 22
-76 6z"/>
<path d="M2791 4786 c-7 -8 -11 -32 -9 -53 2 -29 9 -41 28 -50 28 -13 70 -7
70 9 0 6 -10 8 -22 5 -26 -7 -58 8 -58 28 0 11 12 15 45 15 46 0 53 7 35 41
-13 23 -71 26 -89 5z m67 -19 c3 -13 -3 -17 -27 -17 -33 0 -39 8 -19 28 17 17
42 11 46 -11z"/>
<path d="M2922 4788 c-5 -7 -9 -31 -8 -53 1 -22 -2 -48 -7 -58 -21 -44 62 -67
98 -27 23 25 5 50 -36 50 -15 0 -31 5 -34 10 -3 6 4 10 18 10 26 0 37 10 55
53 l12 27 -44 0 c-24 0 -48 -6 -54 -12z m56 -26 c3 -17 -2 -22 -17 -22 -16 0
-21 6 -21 26 0 33 33 30 38 -4z m3 -82 c5 0 9 -7 9 -15 0 -10 -10 -15 -30 -15
-18 0 -30 5 -30 13 0 19 12 29 28 22 7 -3 18 -5 23 -5z"/>
<path d="M3053 4788 c-43 -56 -4 -123 64 -110 32 6 29 23 -5 20 -33 -2 -52 8
-52 28 0 11 9 13 37 10 44 -4 63 1 63 19 0 38 -84 63 -107 33z m55 -10 c19
-19 14 -28 -18 -28 -16 0 -30 4 -30 8 0 9 21 32 30 32 3 0 11 -5 18 -12z"/>
<path d="M1044 4632 c-25 -21 -25 -32 4 -71 34 -46 85 -43 111 7 15 29 -5 76
-34 79 -18 3 -18 2 2 -8 48 -25 29 -99 -25 -99 -16 0 -33 5 -40 12 -20 20 -14
65 10 82 15 11 17 16 8 16 -8 0 -24 -8 -36 -18z"/>
<path d="M660 4560 l0 -70 50 0 50 0 0 -160 0 -160 70 0 70 0 0 160 0 160 50
0 50 0 0 70 0 70 -170 0 -170 0 0 -70z m330 0 l0 -60 -50 0 -50 0 0 -160 0
-160 -60 0 -60 0 0 160 0 160 -50 0 -50 0 0 60 0 60 160 0 160 0 0 -60z"/>
<path d="M2300 4400 l0 -230 70 0 70 0 0 111 c0 60 4 108 8 105 4 -2 27 -52
51 -110 l44 -106 78 0 c44 0 79 3 78 8 0 11 -88 178 -88 169 -1 -4 17 -43 39
-88 l39 -80 -71 3 -71 3 -48 119 c-55 134 -57 112 23 249 l40 67 60 0 c71 0
71 6 -3 -116 -50 -83 -50 -83 -34 -115 9 -17 19 -29 22 -26 2 3 0 14 -6 25
-17 32 -14 42 44 140 30 51 55 95 55 97 0 3 -33 5 -73 5 l-74 0 -49 -89 c-27
-49 -52 -87 -56 -85 -5 3 -8 43 -8 90 l0 84 -70 0 -70 0 0 -230z m130 0 l0
-220 -60 0 -60 0 0 220 0 220 60 0 60 0 0 -220z"/>
<path d="M3670 4400 l0 -230 65 0 65 0 2 48 c0 26 1 53 1 60 -1 6 3 12 8 12 6
0 6 8 0 18 -7 13 -6 23 2 32 9 10 9 11 0 6 -15 -8 -17 3 -4 23 20 32 31 -3 31
-100 l0 -100 68 3 67 3 -3 53 c-1 29 3 62 8 73 6 10 7 19 2 19 -10 0 -8 26 3
53 4 10 1 27 -10 43 -9 15 -12 23 -6 20 6 -4 11 0 11 8 0 9 -6 16 -13 16 -8 0
-20 11 -27 25 -9 17 -22 25 -39 25 l-26 0 25 -13 c46 -23 60 -69 60 -199 l0
-118 -55 0 -55 0 0 89 c0 102 -5 121 -30 121 -25 0 -30 -19 -30 -121 l0 -89
-55 0 -55 0 0 220 0 220 55 0 55 0 0 -65 c0 -66 7 -76 39 -56 8 5 9 11 3 15
-6 3 -8 15 -5 26 3 11 1 20 -4 20 -6 0 -8 12 -5 26 6 35 -10 44 -85 44 l-63 0
0 -230z"/>
<path d="M4022 4451 c3 -195 6 -206 70 -254 32 -24 118 -36 118 -16 0 8 5 7
13 -5 11 -15 21 -17 60 -11 26 4 58 16 71 26 13 11 29 19 35 19 6 0 11 6 11
14 0 8 7 17 16 20 8 3 13 10 10 15 -4 5 0 12 6 14 10 4 10 6 1 6 -16 1 -17 31
-2 31 5 0 7 -5 3 -12 -4 -7 -3 -8 4 -4 15 9 16 76 2 76 -13 0 -27 -33 -35 -84
-8 -51 -61 -106 -101 -106 -16 0 -39 -3 -51 -6 -22 -6 -23 -4 -23 54 0 57 1
60 29 70 24 9 31 18 36 49 14 82 17 91 40 113 20 19 77 39 113 40 8 0 12 -20
12 -65 0 -68 9 -82 28 -40 9 19 9 25 -1 25 -8 0 -7 4 3 10 13 9 7 14 -13 11
-4 0 -6 2 -6 6 1 5 1 21 0 37 -1 28 -2 29 -46 23 -90 -13 -135 -57 -135 -132
0 -37 -28 -75 -54 -75 -10 0 -16 -13 -19 -37 l-4 -38 -1 43 c-2 35 -5 42 -22
42 -23 0 -44 32 -29 47 6 6 4 10 -6 10 -8 0 -15 -8 -15 -18 0 -21 26 -49 46
-49 11 0 14 -15 14 -61 l0 -62 -40 6 c-50 6 -93 37 -114 81 -13 27 -16 67 -16
195 l0 161 55 0 55 0 0 -60 c0 -57 1 -60 25 -60 24 0 25 -2 25 -65 0 -37 4
-65 10 -65 11 0 14 20 11 58 -1 13 2 21 7 18 5 -3 9 1 9 9 0 8 -4 12 -8 9 -4
-2 -9 6 -11 18 -2 16 -11 24 -29 26 -22 3 -26 8 -27 35 0 17 4 37 10 44 7 9 7
13 -1 13 -6 0 -10 6 -8 13 1 8 -18 13 -66 15 l-68 3 3 -180z"/>
<path d="M1898 4513 c6 -2 18 -2 25 0 6 3 1 5 -13 5 -14 0 -19 -2 -12 -5z"/>
<path d="M2868 4513 c6 -2 18 -2 25 0 6 3 1 5 -13 5 -14 0 -19 -2 -12 -5z"/>
<path d="M3438 4513 c7 -3 16 -2 19 1 4 3 -2 6 -13 5 -11 0 -14 -3 -6 -6z"/>
<path d="M3475 4510 c-3 -6 3 -10 14 -10 27 0 81 -48 97 -87 22 -51 18 -228
-5 -278 -31 -66 -86 -105 -151 -105 -52 0 -60 8 -60 60 0 43 2 48 20 43 34 -9
69 6 85 37 21 41 21 193 -1 214 -8 9 -23 16 -33 16 -21 0 -51 -30 -51 -52 0
-19 32 -48 53 -48 14 0 17 -10 17 -50 0 -54 -4 -57 -70 -51 -63 6 -110 69
-110 147 0 65 29 111 90 142 25 12 36 22 26 22 -26 0 -83 -45 -107 -84 -27
-44 -26 -123 4 -166 37 -55 72 -75 128 -73 54 1 59 -5 29 -32 -14 -13 -28 -16
-55 -11 l-35 7 0 -60 c0 -58 1 -60 31 -66 59 -13 117 3 159 45 48 48 59 86 62
220 2 110 -8 145 -48 181 -32 28 -82 50 -89 39z m-5 -139 c5 -11 9 -48 8 -83
-1 -57 -2 -58 -5 -15 -2 27 -8 45 -14 42 -14 -9 -46 4 -53 21 -16 42 43 74 64
35z"/>
<path d="M1029 4478 c-3 -141 1 -292 9 -300 5 -5 36 -8 68 -6 l59 3 3 168 2
167 -70 0 -70 0 -1 -32z m131 -138 l0 -160 -60 0 -60 0 0 160 0 160 60 0 60 0
0 -160z"/>
<path d="M1274 4478 c-44 -48 -51 -72 -47 -183 1 -55 3 -106 3 -112 0 -9 20
-13 65 -13 l64 0 3 102 c2 70 7 103 16 106 9 3 12 -22 12 -103 l0 -106 68 3
67 3 3 103 c1 56 7 102 12 102 5 0 11 -46 12 -102 l3 -103 68 -3 67 -3 0 108
c0 59 -5 125 -10 145 -11 39 -60 88 -88 88 -9 -1 -3 -7 15 -15 56 -24 68 -54
72 -192 l3 -123 -56 0 -56 0 0 89 c0 103 -5 121 -31 121 -17 0 -19 -9 -19
-105 l0 -105 -60 0 -60 0 0 106 c0 104 0 105 -22 102 -22 -3 -23 -8 -26 -105
l-3 -103 -54 0 -55 0 0 118 c0 133 14 172 73 197 24 11 27 14 11 15 -11 0 -34
-15 -50 -32z"/>
<path d="M1400 4499 c13 -6 32 -17 41 -25 15 -13 21 -12 54 11 21 14 33 25 26
25 -6 0 -23 -8 -37 -17 -24 -15 -27 -15 -54 0 -15 9 -34 17 -42 16 -7 0 -2 -5
12 -10z"/>
<path d="M1803 4481 c-44 -32 -73 -90 -73 -144 1 -47 33 -111 70 -137 52 -37
158 -40 204 -5 18 14 17 16 -18 59 -33 40 -39 44 -57 33 -24 -15 -51 0 -60 34
-6 21 -7 22 -8 3 -1 -29 33 -58 61 -51 24 7 78 -35 78 -60 0 -19 -43 -33 -99
-33 -109 0 -186 109 -152 213 15 44 65 95 106 106 22 7 24 9 9 10 -12 1 -39
-12 -61 -28z"/>
<path d="M1980 4488 c54 -28 80 -62 87 -116 l6 -42 -92 0 c-84 0 -91 1 -91 20
0 16 7 20 35 20 19 0 35 4 35 9 0 16 -30 41 -49 41 -25 0 -54 -35 -48 -57 4
-16 5 -15 6 3 2 41 46 59 71 29 11 -13 7 -15 -24 -15 -33 0 -36 -2 -36 -30 l0
-30 100 0 100 0 0 30 c0 17 -6 45 -14 63 -17 41 -80 97 -108 97 -16 0 -10 -6
22 -22z"/>
<path d="M2787 4478 c-18 -18 -21 -23 -7 -11 14 12 36 26 50 32 18 7 20 10 7
10 -9 1 -32 -14 -50 -31z"/>
<path d="M2940 4492 c59 -31 80 -87 80 -209 l0 -103 -60 0 -60 0 0 104 c0 79
-3 105 -14 109 -27 11 -36 -17 -36 -115 l0 -98 -56 0 -56 0 4 124 c2 68 0 119
-4 113 -4 -7 -8 -65 -8 -129 l0 -118 65 0 65 0 0 105 c0 86 3 105 15 105 11 0
15 -20 17 -102 l3 -103 68 -3 67 -3 0 107 c0 59 -5 123 -11 143 -11 37 -69 91
-98 91 -9 0 0 -8 19 -18z"/>
<path d="M3090 4340 l0 -170 65 0 65 0 0 94 c0 54 4 98 10 101 6 4 7 11 4 17
-8 12 -11 35 -13 91 l-1 37 -65 0 -65 0 0 -170z m120 0 l0 -160 -55 0 -55 0 0
160 0 160 55 0 55 0 0 -160z"/>
<path d="M3000 4056 c0 -37 -145 -276 -167 -276 -7 0 -13 -6 -13 -14 0 -29
-158 -166 -182 -158 -5 1 -8 -2 -8 -7 0 -15 -122 -60 -191 -71 -65 -10 -156
-3 -241 18 -20 6 -38 6 -40 1 -3 -8 -127 8 -238 31 -30 6 -89 10 -130 9 -103
-3 -122 -3 -147 4 -17 4 -23 2 -23 -11 0 -15 -2 -15 -10 -2 -5 8 -10 10 -10 4
0 -7 -7 -15 -16 -18 -9 -4 -13 -2 -8 5 9 15 -36 1 -58 -18 -9 -8 -21 -12 -26
-9 -5 3 -16 -1 -23 -10 -8 -10 -22 -14 -41 -10 -15 3 -30 1 -33 -4 -3 -6 2 -7
12 -4 16 5 16 4 2 -5 -9 -6 -25 -12 -35 -14 -11 -1 -36 -19 -57 -40 -21 -20
-43 -38 -48 -38 -10 -2 -25 -5 -36 -9 -5 -1 -11 -2 -15 -1 -5 0 -8 -6 -8 -14
0 -8 -9 -19 -20 -25 -11 -6 -20 -15 -20 -21 0 -6 5 -7 10 -4 6 3 10 1 10 -5 0
-7 -9 -14 -20 -17 -11 -3 -17 -10 -13 -16 4 -6 0 -8 -10 -4 -13 5 -17 1 -17
-14 0 -11 -4 -17 -10 -14 -5 3 -10 1 -10 -4 0 -6 5 -11 10 -11 11 0 -8 -40
-24 -52 -5 -3 -11 -14 -12 -24 -2 -9 -8 -20 -14 -24 -9 -6 -9 -9 0 -12 15 -5
4 -49 -11 -45 -5 1 -12 -38 -15 -88 -8 -115 -8 -104 0 -150 11 -68 14 -83 24
-102 5 -10 7 -23 5 -29 -4 -12 20 -52 74 -126 33 -46 146 -124 206 -142 23 -7
69 -29 100 -49 32 -21 61 -37 66 -37 5 0 17 -7 25 -16 12 -12 13 -20 6 -35 -6
-10 -8 -19 -6 -19 3 0 1 -12 -6 -27 -6 -16 -12 -98 -13 -183 -2 -85 -3 -163
-4 -173 -1 -9 -13 -23 -28 -30 -41 -17 -42 -23 -26 -91 9 -33 17 -76 19 -95 2
-18 11 -53 20 -78 9 -24 14 -46 11 -50 -4 -3 -2 -13 3 -23 11 -21 20 -61 25
-122 3 -26 10 -60 17 -75 6 -15 12 -36 13 -46 1 -10 5 -20 8 -24 4 -3 2 -14
-4 -24 -7 -15 -6 -17 6 -13 11 5 14 0 13 -17 -2 -15 2 -24 12 -24 8 -1 14 -6
12 -13 -1 -7 6 -12 15 -12 10 -1 40 -16 68 -35 27 -18 53 -31 57 -29 4 3 8 1
8 -4 0 -5 14 -12 30 -16 18 -3 30 -12 30 -21 0 -12 13 -20 23 -13 1 1 13 -5
27 -12 14 -8 27 -15 30 -15 12 -1 100 -58 100 -63 -1 -4 -25 -22 -55 -41 -29
-19 -64 -44 -77 -55 -13 -12 -41 -36 -63 -55 -44 -38 -209 -221 -200 -221 8 0
-24 -44 -61 -85 -14 -16 -32 -43 -40 -60 -7 -16 -13 -25 -14 -20 0 6 -5 3 -10
-5 -8 -13 -10 -12 -10 3 0 9 4 17 9 17 5 0 7 9 4 19 -5 21 -34 18 -32 -3 3
-27 -2 -36 -21 -36 -11 0 -19 3 -19 8 3 20 -3 28 -21 28 -17 0 -18 -2 -5 -16
8 -9 13 -19 10 -22 -10 -9 -12 -62 -4 -84 10 -29 0 -64 -18 -64 -10 0 -12 -7
-8 -22 3 -13 3 -18 -2 -13 -4 6 -27 11 -50 12 -32 1 -43 -2 -43 -13 0 -8 -4
-14 -10 -14 -5 0 -7 7 -4 15 7 18 0 19 -27 5 -10 -6 -19 -18 -19 -26 0 -8 -5
-12 -10 -9 -5 3 -10 1 -10 -5 0 -7 -6 -5 -15 4 -18 18 -19 27 -2 23 6 -1 11 6
11 16 -1 9 3 17 8 17 5 0 8 8 6 18 -1 9 1 23 5 30 12 17 -14 11 -31 -8 -12
-13 -13 -12 -9 8 6 24 -3 28 -21 10 -8 -8 -12 -9 -12 -1 0 6 16 17 35 23 31
10 55 43 41 57 -3 4 -6 -2 -6 -12 0 -15 -2 -16 -17 -4 -16 13 -17 12 -5 -3 15
-19 2 -31 -22 -22 -9 4 -16 1 -16 -6 0 -10 -3 -10 -14 -1 -18 15 -26 59 -12
65 7 3 7 5 -1 5 -15 1 -21 -8 -28 -48 -3 -20 -1 -40 7 -50 8 -10 5 -9 -10 3
-13 12 -20 26 -17 35 3 8 3 12 -1 8 -4 -4 -13 -2 -21 4 -22 19 -16 -14 7 -39
12 -12 16 -22 10 -22 -6 0 -13 7 -16 15 -4 8 -13 15 -22 15 -13 0 -12 -4 4
-22 40 -46 45 -55 29 -55 -8 0 -13 3 -11 6 8 12 -21 29 -35 20 -23 -15 -49
-10 -49 9 0 14 -2 15 -10 2 -7 -11 -10 -11 -10 -2 0 7 -4 11 -9 8 -5 -4 -12 0
-14 6 -4 10 -8 10 -15 -1 -12 -16 -35 -4 -28 15 3 8 0 11 -8 8 -7 -3 -25 0
-40 6 -24 9 -27 8 -22 -6 8 -20 -2 -37 -16 -28 -6 4 -5 10 3 15 11 7 9 9 -6 9
-17 0 -18 2 -5 11 10 7 11 9 2 7 -8 -2 -13 -7 -13 -11 1 -4 1 -21 1 -38 0 -17
4 -28 10 -24 6 3 10 -1 10 -10 0 -10 -5 -13 -12 -9 -7 4 -8 3 -4 -5 5 -7 -3
-23 -18 -38 -14 -14 -26 -21 -26 -15 0 6 -11 9 -25 8 -17 -2 -26 3 -30 15 -6
18 -36 28 -34 12 3 -20 -2 -33 -12 -33 -8 0 -9 4 0 13 6 8 8 17 4 20 -8 9 17
38 28 31 5 -3 9 2 9 10 0 9 -7 16 -15 16 -8 0 -14 -6 -12 -13 1 -7 -6 -11 -16
-9 -10 2 -17 -2 -16 -10 4 -29 -2 -49 -12 -43 -6 4 -8 14 -5 22 3 8 1 11 -4 8
-6 -3 -10 2 -11 12 0 11 -3 13 -6 5 -4 -9 -8 -10 -18 -2 -10 8 -15 8 -21 -1
-4 -8 -3 -9 4 -5 18 11 14 0 -5 -15 -10 -7 -15 -9 -10 -4 4 4 -3 20 -15 33
-13 14 -16 22 -8 18 8 -4 7 -1 -4 8 -23 19 -12 40 14 26 13 -7 21 -7 25 0 4 6
10 8 15 5 4 -3 10 4 13 15 8 30 -13 36 -35 9 -18 -23 -19 -23 -8 -1 11 22 -2
33 -15 12 -3 -6 -12 -10 -18 -9 -9 0 -8 2 1 6 6 2 9 10 6 15 -4 6 -2 8 3 5 6
-4 13 0 17 8 4 11 -2 15 -20 15 -14 0 -23 -3 -21 -7 3 -5 1 -17 -4 -28 -7 -19
-8 -19 -8 -1 -1 16 -3 17 -18 5 -11 -10 -14 -10 -9 -1 4 7 1 12 -9 12 -9 0
-19 -9 -22 -19 -5 -21 -29 -35 -44 -25 -5 3 -9 0 -9 -5 0 -14 37 -14 45 -1 3
5 12 7 20 4 12 -5 12 -9 -1 -29 -18 -27 -27 -68 -13 -60 5 4 9 13 9 22 0 9 3
13 7 10 3 -4 0 -18 -7 -32 -10 -20 -16 -22 -32 -14 -16 9 -18 7 -14 -15 3 -15
-1 -27 -10 -30 -8 -3 -13 -11 -12 -18 2 -8 -5 -12 -16 -10 -12 2 -16 -1 -11
-10 6 -10 5 -11 -6 0 -15 14 -69 16 -69 2 0 -5 6 -7 14 -4 21 8 27 -10 11 -32
-9 -12 -14 -14 -15 -6 0 7 -5 10 -12 6 -7 -4 -8 -3 -4 4 4 7 0 22 -8 34 -11
15 -12 26 -5 39 6 12 5 20 -3 25 -7 5 -8 3 -3 -5 5 -9 -1 -11 -24 -8 -17 3
-31 1 -31 -3 0 -15 18 -21 23 -8 3 8 6 6 6 -4 1 -10 5 -18 10 -18 5 0 11 -10
13 -23 3 -15 0 -24 -8 -24 -7 0 -10 6 -7 14 8 21 -35 15 -60 -8 -15 -15 -17
-20 -6 -16 9 3 23 0 30 -6 11 -10 11 -9 1 4 -11 15 -7 29 9 29 9 0 19 -40 11
-41 -33 -7 -54 -4 -63 7 -6 8 -15 11 -20 8 -5 -3 -6 1 -3 9 3 8 -2 20 -10 27
-14 11 -15 8 -12 -19 3 -31 3 -31 -16 -14 -11 10 -22 17 -24 16 -11 -7 -21 -1
-21 12 0 8 4 12 9 9 4 -3 8 2 8 10 0 9 -6 13 -13 10 -8 -3 -14 2 -14 11 0 8 7
15 16 16 11 0 12 2 3 6 -6 2 -10 8 -7 13 3 4 -1 10 -9 13 -11 5 -14 -18 -15
-124 l-2 -129 2561 0 2560 0 0 45 c0 48 -6 55 -24 30 -10 -13 -13 -12 -25 7
-14 22 -13 22 5 8 17 -14 18 -14 6 1 -13 17 -57 15 -46 -2 3 -5 -6 -9 -20 -9
-13 0 -26 -5 -28 -12 -2 -6 -12 -12 -21 -14 -9 -1 -15 2 -11 7 3 5 10 7 15 4
15 -10 10 2 -8 16 -11 10 -14 10 -9 2 11 -20 -15 -16 -52 7 -19 12 -31 16 -27
10 10 -15 -6 -12 -26 6 -10 9 -23 13 -30 8 -9 -5 -7 -10 6 -20 16 -12 16 -13
-3 -11 -11 0 -19 4 -16 8 6 10 -18 24 -41 24 -11 -1 -19 -7 -17 -14 1 -7 -2
-10 -8 -6 -5 3 -10 1 -10 -6 0 -7 -8 -6 -24 5 -16 10 -26 12 -28 4 -3 -7 -9
-6 -19 4 -8 8 -20 13 -28 10 -9 -3 -11 0 -6 8 6 10 4 11 -6 4 -8 -5 -24 -9
-35 -9 -12 0 -28 -5 -35 -11 -23 -18 -49 -24 -49 -12 0 7 -6 4 -12 -5 -19 -25
-61 -11 -54 17 5 19 4 20 -8 4 -7 -10 -16 -15 -19 -11 -4 3 -12 1 -19 -4 -7
-6 -23 -9 -35 -7 -13 2 -23 -1 -23 -7 0 -8 -5 -8 -15 1 -10 9 -15 9 -15 1 0
-6 -7 -11 -16 -11 -12 0 -14 3 -6 13 8 9 8 17 0 27 -8 13 -9 12 -5 -2 4 -10
-1 -18 -15 -21 -11 -3 -17 -10 -14 -15 3 -6 -1 -12 -9 -16 -8 -3 -15 -1 -15 5
0 6 -5 7 -10 4 -6 -4 -9 -1 -8 7 2 7 -5 12 -14 12 -10 -1 -15 2 -12 7 3 5 -2
6 -10 3 -9 -3 -13 -11 -9 -17 4 -6 1 -7 -8 -1 -20 12 -40 14 -33 3 3 -5 -1
-15 -8 -22 -17 -17 -48 -18 -41 -2 8 22 -37 25 -58 4 -18 -18 -22 -18 -42 -4
-12 8 -17 15 -11 15 5 0 15 -5 22 -12 9 -9 12 -9 12 0 0 20 -49 26 -68 9 -19
-17 -58 -16 -55 2 2 6 -2 11 -7 11 -6 0 -10 -6 -10 -12 0 -7 -10 1 -21 17 -12
17 -19 22 -15 13 3 -10 1 -18 -5 -18 -6 0 -7 -5 -3 -12 5 -8 2 -9 -10 -5 -10
4 -20 7 -22 7 -2 0 -4 6 -4 14 0 8 -7 17 -16 20 -24 9 -31 7 -11 -5 9 -6 15
-15 11 -20 -4 -6 -11 -6 -20 2 -10 8 -14 8 -14 0 0 -6 -8 -11 -17 -10 -11 0
-13 3 -5 6 6 2 12 10 12 16 0 6 -11 0 -25 -13 -14 -13 -26 -20 -26 -17 -1 4
-2 13 -3 19 0 7 -10 14 -21 17 -15 3 -17 1 -8 -10 9 -11 6 -17 -13 -26 -16 -7
-22 -8 -17 0 4 7 0 8 -11 4 -16 -6 -17 -3 -13 20 l6 28 -13 -29 c-8 -17 -15
-24 -18 -16 -3 10 -9 10 -24 2 -15 -8 -24 -8 -32 0 -8 8 -13 7 -17 -5 -4 -9
-13 -13 -20 -11 -7 3 -23 1 -34 -5 -14 -8 -22 -8 -26 -1 -4 6 -14 10 -23 8
-10 -1 -22 1 -29 5 -6 4 -14 3 -17 -2 -4 -6 -20 -5 -43 1 -20 5 -46 8 -59 5
-13 -2 -21 0 -18 4 3 5 1 9 -4 9 -6 0 -12 -7 -16 -15 -3 -8 -11 -15 -18 -15
-9 0 -8 3 2 10 13 9 13 10 0 11 -8 1 -18 1 -22 0 -5 0 -8 4 -8 10 0 6 9 8 23
4 18 -6 20 -5 9 6 -10 10 -17 11 -30 2 -9 -6 -16 -16 -14 -23 1 -6 -2 -9 -7
-6 -5 4 -12 0 -14 -6 -4 -9 -6 -9 -6 -1 -1 8 -10 9 -31 3 -25 -7 -30 -6 -31 8
0 14 -3 13 -15 -4 -13 -19 -19 -20 -65 -12 -33 6 -55 6 -63 -1 -8 -7 -17 -6
-26 1 -12 8 -12 9 3 4 9 -3 17 -1 17 4 0 6 -3 10 -7 11 -5 0 -16 2 -25 4 -10
2 -17 0 -17 -3 4 -26 -2 -31 -25 -22 -13 5 -26 6 -29 4 -3 -3 -14 -1 -25 5
-13 7 -22 7 -30 -1 -9 -9 -12 -7 -13 7 0 19 -1 19 -9 0 -5 -11 -9 -15 -9 -10
-1 6 -6 3 -11 -5 -6 -10 -10 -11 -10 -2 0 6 -7 12 -16 12 -8 0 -13 4 -9 9 3 5
0 13 -6 16 -6 4 -13 -2 -16 -14 -3 -11 -9 -18 -14 -15 -5 3 -7 10 -4 15 4 5 1
9 -5 9 -6 0 -8 -10 -4 -25 3 -14 2 -25 -4 -25 -15 0 -33 26 -24 35 4 4 -8 5
-26 2 -19 -4 -31 -3 -27 2 3 5 1 13 -5 16 -6 4 -10 3 -9 -2 3 -20 -2 -34 -11
-28 -6 4 -8 11 -5 16 9 13 -9 11 -23 -3 -9 -9 -14 -6 -21 13 -5 13 -10 17 -11
9 0 -13 -1 -13 -10 0 -8 13 -10 13 -10 -1 0 -9 -6 -16 -13 -16 -8 0 -14 6 -14
13 0 7 4 11 9 8 4 -3 8 2 8 11 0 9 -5 13 -11 9 -6 -3 -16 0 -21 7 -7 10 -8 5
-3 -14 4 -19 2 -26 -5 -22 -5 3 -10 13 -10 21 0 8 -7 14 -16 14 -11 0 -14 5
-10 17 4 10 4 14 0 10 -4 -4 -13 1 -21 11 -8 9 -11 11 -8 4 5 -10 1 -13 -12
-10 -11 2 -28 -4 -38 -12 -17 -13 -18 -13 -10 0 8 13 7 13 -9 1 -12 -10 -14
-16 -5 -21 8 -6 8 -9 0 -14 -10 -7 -15 5 -12 31 1 6 -8 18 -19 26 -11 7 -18
16 -15 19 3 2 -1 5 -8 5 -9 0 -13 -11 -12 -28 1 -20 -5 -30 -22 -38 -18 -8
-23 -8 -23 4 0 8 -4 15 -10 15 -16 0 -12 22 6 35 16 11 16 12 0 18 -9 4 -15 3
-12 -2 7 -11 -22 -23 -36 -14 -7 3 -8 1 -4 -5 4 -7 5 -12 3 -12 -10 0 -61 30
-52 30 6 0 3 5 -5 10 -13 8 -12 10 3 10 9 0 17 -4 17 -10 0 -5 8 -10 18 -10
14 0 15 2 2 10 -13 9 -13 11 0 20 12 8 10 10 -9 10 -19 0 -21 3 -11 14 8 11 9
20 1 33 -6 10 -11 13 -11 6 0 -14 -23 -11 -42 5 -29 24 -25 0 4 -29 32 -30 28
-40 -6 -14 -13 10 -25 11 -42 5 -19 -7 -24 -6 -24 5 0 8 -7 15 -16 15 -14 0
-15 -2 -3 -18 8 -9 19 -20 24 -24 6 -5 5 -8 -2 -8 -7 0 -10 -6 -7 -14 3 -8 1
-17 -4 -20 -5 -3 -10 0 -9 7 1 33 -4 47 -17 47 -8 0 -17 -6 -20 -12 -4 -7 -4
-2 -2 12 5 23 4 24 -9 6 -10 -13 -21 -17 -39 -12 -37 9 -55 -2 -54 -34 1 -21
7 -30 25 -34 12 -4 23 -12 24 -19 1 -6 5 -1 9 13 8 23 8 23 7 -7 -1 -18 -7
-35 -15 -38 -7 -2 -10 0 -7 5 3 6 2 10 -4 10 -5 0 -12 -8 -14 -17 -2 -10 -3
-3 -1 15 1 18 -1 30 -7 27 -5 -4 -9 -14 -9 -23 -1 -15 -2 -15 -10 -2 -5 9 -7
27 -6 41 2 20 -3 28 -24 36 -24 9 -27 8 -25 -6 2 -9 4 -24 4 -33 1 -9 9 -19
19 -21 11 -3 9 -5 -8 -6 -27 -1 -28 1 -32 77 -2 41 -15 57 -35 40 -9 -7 -13
-7 -13 1 0 7 -5 9 -12 5 -7 -4 -4 2 6 14 21 24 36 31 17 8 -10 -11 -7 -14 14
-12 26 1 34 11 13 18 -12 4 -10 7 52 55 19 15 32 23 28 19 -4 -5 0 -15 8 -23
12 -12 12 -18 2 -31 -9 -11 -9 -14 -1 -9 7 5 21 -1 33 -13 17 -17 23 -18 40
-8 11 7 15 15 9 17 -6 2 -15 -3 -20 -10 -6 -10 -9 -7 -9 11 0 30 19 65 21 40
1 -8 1 -18 0 -22 0 -5 4 -8 9 -8 6 0 10 11 10 24 0 13 3 32 7 42 4 12 3 15 -6
10 -7 -5 -10 -2 -9 6 5 20 27 40 38 33 6 -4 9 -1 8 6 -2 10 175 127 192 127
26 0 40 5 61 23 13 11 36 23 51 26 15 3 32 11 39 19 6 7 17 10 25 7 8 -3 21 3
29 13 8 11 15 15 15 11 0 -4 10 -2 23 5 12 7 25 12 29 13 3 0 10 3 14 8 4 4
16 7 26 7 10 0 18 4 18 10 0 5 3 9 8 8 4 -1 34 10 66 26 32 15 64 25 71 23 6
-3 33 5 61 18 27 12 73 28 103 34 30 6 59 15 65 20 13 11 249 64 291 66 17 0
46 6 65 12 32 10 161 30 220 33 96 6 460 6 460 1 0 -4 12 -7 28 -6 15 0 52 -3
82 -7 139 -20 140 -20 140 -7 0 40 -211 209 -281 224 -40 9 -36 22 5 17 31 -4
36 -1 52 33 9 20 23 39 31 42 7 3 13 10 13 15 0 5 8 20 18 33 9 12 24 33 32
45 80 117 154 209 162 204 7 -4 8 -2 4 4 -4 7 -2 12 3 12 6 0 11 6 11 13 0 26
167 203 284 300 25 21 80 54 123 74 96 46 88 49 -117 52 -167 2 -318 -22 -535
-84 -33 -10 -73 -20 -88 -22 -26 -5 -28 -3 -19 13 5 11 19 39 31 64 35 71 65
125 74 128 21 10 1 18 -51 20 -119 6 -350 -68 -463 -148 l-28 -21 -16 25 c-9
14 -23 46 -31 72 -17 57 -19 230 -3 240 36 22 -35 242 -112 343 -21 28 -39 53
-39 54 0 2 12 2 28 0 24 -4 132 12 250 36 59 12 157 62 224 116 133 105 217
244 275 453 26 92 27 109 28 347 1 138 -1 255 -4 260 -3 6 -10 37 -16 69 -5
33 -16 61 -22 64 -7 2 -13 -1 -13 -7 0 -13 -106 -165 -146 -210 -16 -18 -44
-47 -63 -64 -19 -18 -47 -44 -63 -58 -15 -15 -40 -35 -54 -45 -14 -11 -45 -34
-67 -51 -23 -18 -47 -33 -54 -33 -6 0 -13 -3 -15 -7 -1 -5 -30 -21 -63 -37
-33 -15 -76 -37 -96 -47 -20 -10 -53 -20 -73 -21 -20 -2 -36 -6 -36 -10 0 -3
-21 -11 -47 -17 -27 -6 -58 -14 -71 -17 -21 -6 -22 -5 -12 22 53 137 67 430
28 572 -13 48 -28 82 -35 82 -7 0 -13 -6 -13 -14z m888 -213 c52 -480 -61
-809 -345 -1004 -99 -68 -257 -123 -389 -135 -41 -4 -74 -9 -74 -11 0 -2 9
-14 20 -25 51 -55 165 -324 156 -368 -3 -14 -10 -50 -16 -80 -15 -70 0 -170
37 -249 32 -68 127 -165 199 -203 l51 -28 84 34 c135 54 337 115 486 145 156
32 376 51 387 32 4 -6 0 -11 -9 -11 -45 0 -189 -103 -276 -198 -127 -138 -242
-286 -353 -454 l-58 -88 -46 0 c-26 0 -71 -3 -101 -7 l-54 -6 53 -14 c107 -27
247 -109 319 -187 27 -29 25 -30 -45 -17 -27 5 -105 15 -174 21 -70 7 -134 19
-146 26 -70 47 -236 93 -364 103 l-85 6 90 29 c50 16 131 39 180 52 70 18 79
22 40 18 -219 -23 -482 -87 -647 -158 -21 -9 -38 -14 -38 -11 0 4 69 39 153
79 361 174 635 263 857 279 42 3 56 8 58 22 3 14 -1 16 -25 11 -15 -3 -50 -8
-78 -12 -221 -28 -635 -150 -853 -250 -179 -83 -189 -82 -33 5 435 242 800
384 1073 416 52 6 59 10 92 52 20 26 34 48 32 50 -4 5 -158 -37 -331 -89 -317
-95 -739 -276 -1020 -436 -165 -94 -422 -270 -529 -362 -107 -91 -218 -196
-241 -226 l-27 -35 51 26 c103 52 469 191 478 181 2 -1 -38 -20 -89 -41 -115
-48 -406 -194 -513 -259 -118 -72 -361 -235 -375 -251 -17 -20 -31 -19 -23 2
6 16 51 99 102 187 110 192 300 410 468 539 77 59 241 147 312 168 74 22 66
63 -13 62 -37 -1 -60 -11 -129 -56 l-85 -55 -73 35 c-41 20 -138 66 -216 104
-127 60 -143 70 -143 92 0 16 12 35 31 51 l30 26 -40 182 c-23 100 -39 183
-37 185 2 2 19 0 37 -5 l34 -8 31 -148 c18 -81 34 -149 37 -152 9 -9 37 9 37
25 0 9 -11 70 -24 136 -13 66 -23 121 -21 123 2 2 18 -1 36 -6 34 -8 34 -9 53
-108 11 -54 21 -101 23 -103 1 -2 11 3 21 12 16 15 17 25 9 88 -5 39 -7 72 -5
75 3 2 19 1 36 -2 28 -6 31 -10 37 -55 4 -27 9 -49 11 -49 2 0 115 69 251 153
137 85 269 166 295 181 l47 28 -29 52 c-40 71 -41 125 -1 158 115 97 240 23
202 -120 -11 -38 -20 -46 -184 -152 -94 -61 -224 -145 -287 -186 -112 -73
-287 -187 -497 -323 -57 -36 -103 -68 -103 -71 0 -3 79 -45 176 -93 l176 -86
286 216 c308 231 368 281 257 211 -38 -24 -117 -73 -175 -108 -58 -35 -115
-70 -127 -78 -47 -30 -20 -2 60 64 45 38 84 71 87 74 3 3 45 39 95 80 88 74
116 97 165 140 25 21 24 21 -15 -1 -22 -12 -59 -35 -82 -51 -23 -15 -44 -28
-47 -28 -3 0 -73 -43 -156 -95 -83 -52 -149 -91 -146 -86 3 5 109 88 236 185
126 98 230 180 230 183 0 3 -10 -1 -23 -10 -41 -27 -457 -278 -472 -284 -18
-8 37 35 130 102 50 36 124 90 165 120 41 30 110 80 153 111 136 98 165 143
152 237 -13 99 -68 157 -148 157 -98 0 -168 -56 -197 -156 l-12 -41 -252 -72
c-138 -39 -336 -96 -441 -126 -160 -45 -190 -57 -188 -72 1 -10 9 -60 17 -112
9 -52 15 -95 13 -97 -4 -4 -67 283 -67 304 0 6 18 16 41 22 30 8 39 15 35 26
-13 35 -27 203 -21 259 4 33 16 86 27 119 10 32 18 59 16 61 -60 43 -194 121
-240 140 -181 74 -277 221 -278 426 0 233 119 437 310 531 92 46 163 65 289
77 105 11 142 8 416 -33 282 -43 410 -33 540 43 111 65 227 199 294 341 l30
62 15 -36 c57 -136 36 -347 -50 -518 l-24 -48 65 0 c217 0 449 104 631 285 94
92 211 249 229 305 13 41 22 17 33 -87z m-38 -1749 c0 -3 -8 -18 -19 -32 -27
-40 -91 -163 -91 -177 0 -17 -20 -32 -52 -40 l-27 -7 25 63 c14 35 35 79 47
98 l21 34 -51 -6 c-70 -8 -158 -39 -228 -81 -104 -61 -104 -61 -121 -44 -15
14 -10 20 53 57 85 50 227 109 308 126 64 14 135 19 135 9z m-2405 -1674 c3
-5 1 -10 -4 -10 -6 0 -11 5 -11 10 0 6 2 10 4 10 3 0 8 -4 11 -10z m359 -56
c3 -8 2 -12 -4 -9 -6 3 -10 10 -10 16 0 14 7 11 14 -7z m-926 -61 c-1 -10 0
-22 3 -28 3 -5 -6 -22 -21 -37 -25 -25 -28 -26 -46 -12 -10 8 -12 12 -4 8 12
-6 13 -4 3 7 -16 16 -17 33 -1 23 7 -5 9 0 6 14 -5 19 -3 20 23 15 22 -4 29
-2 29 11 0 9 3 16 6 16 3 0 4 -8 2 -17z m442 -59 c0 -2 -7 -4 -15 -4 -8 0 -15
4 -15 10 0 5 7 7 15 4 8 -4 15 -8 15 -10z m-240 -4 c0 -5 -2 -10 -4 -10 -3 0
-8 5 -11 10 -3 6 -1 10 4 10 6 0 11 -4 11 -10z m291 -7 c13 -16 12 -17 -3 -4
-17 13 -22 21 -14 21 2 0 10 -8 17 -17z m-789 -20 c2 -16 8 -27 16 -26 18 4
15 -14 -5 -21 -9 -4 -20 -1 -25 6 -5 9 -8 8 -8 -6 0 -11 -3 -16 -7 -13 -3 4
-1 18 7 31 7 14 10 32 7 40 -4 9 -2 16 3 16 5 0 10 -12 12 -27z m994 -5 c4 -7
3 -8 -4 -4 -7 4 -12 3 -12 -3 0 -5 5 -13 10 -16 6 -3 10 -13 10 -21 0 -10 -6
-8 -21 7 -11 11 -18 27 -15 35 7 17 22 18 32 2z m44 1 c0 -5 5 -7 10 -4 6 3
10 1 10 -4 0 -17 -27 -13 -34 4 -3 8 -1 15 4 15 6 0 10 -5 10 -11z m-140 -44
c0 -8 -2 -15 -4 -15 -2 0 -6 7 -10 15 -3 8 -1 15 4 15 6 0 10 -7 10 -15z m-25
-5 c3 -5 -1 -10 -10 -10 -9 0 -13 5 -10 10 3 6 8 10 10 10 2 0 7 -4 10 -10z
m446 1 c7 11 9 10 9 -4 0 -20 -22 -19 -26 1 -2 9 -1 9 3 1 4 -8 8 -7 14 2z
m-31 -16 c0 -8 5 -15 10 -15 6 0 10 -5 10 -12 0 -9 -3 -9 -11 -1 -6 6 -17 9
-24 7 -15 -6 -29 12 -20 26 10 15 35 12 35 -5z m326 0 c-4 -24 -13 -27 -19 -5
-3 13 0 20 8 20 7 0 12 -7 11 -15z m-772 -21 c3 -8 2 -12 -4 -9 -6 3 -10 10
-10 16 0 14 7 11 14 -7z m631 -4 c3 -6 -1 -7 -9 -4 -18 7 -21 14 -7 14 6 0 13
-4 16 -10z m-108 -24 c-3 -8 -14 -13 -24 -11 -10 2 -20 4 -23 4 -3 1 6 7 20
14 29 16 35 14 27 -7z m333 3 c0 -6 -4 -7 -10 -4 -5 3 -10 11 -10 16 0 6 5 7
10 4 6 -3 10 -11 10 -16z m-405 -7 c-3 -3 -11 0 -18 7 -9 10 -8 11 6 5 10 -3
15 -9 12 -12z m3019 -18 c3 -8 2 -12 -4 -9 -6 3 -10 10 -10 16 0 14 7 11 14
-7z"/>
<path d="M2780 3549 c-101 -87 -282 -150 -435 -151 -74 -1 -113 6 -215 34
-179 51 -325 64 -478 43 -239 -31 -384 -138 -474 -347 -26 -62 -31 -86 -32
-158 0 -76 3 -91 29 -138 39 -71 109 -133 207 -182 86 -43 109 -48 127 -26 9
11 3 19 -33 40 -75 44 -163 132 -193 194 -56 114 -30 228 77 345 54 59 148
132 138 106 -46 -109 -58 -143 -68 -196 -7 -37 -10 -85 -5 -118 15 -127 137
-171 343 -124 47 11 71 29 39 29 -8 0 -39 18 -70 40 -109 78 -139 179 -84 285
21 42 26 47 32 30 37 -115 132 -180 325 -223 105 -24 510 -23 700 1 359 45
666 133 803 229 16 11 30 18 32 16 3 -3 -8 -25 -24 -50 -70 -111 -267 -216
-517 -275 -82 -20 -89 -31 -41 -67 l28 -21 103 27 c265 68 515 241 613 424 36
67 83 201 83 235 0 21 -3 20 -42 -17 -110 -105 -279 -181 -500 -226 -100 -20
-143 -23 -365 -23 -222 0 -302 7 -253 22 32 11 168 161 185 206 27 71 17 81
-35 36z"/>
<path d="M2081 2945 c-91 -24 -208 -76 -281 -126 -103 -70 -280 -233 -280
-258 0 -10 125 -111 137 -111 5 1 26 30 48 65 44 72 121 156 169 186 l31 20
-30 -6 c-16 -3 -69 -26 -117 -50 -49 -24 -88 -42 -88 -41 0 6 146 122 185 148
66 42 135 74 225 104 81 27 94 29 250 28 152 0 171 -3 243 -27 136 -47 265
-119 392 -219 43 -35 41 -32 -15 22 -76 73 -205 160 -305 206 -120 55 -206 75
-345 80 -110 4 -136 1 -219 -21z"/>
<path d="M2278 2805 c-136 -23 -279 -78 -378 -145 -121 -82 -202 -191 -247
-332 -25 -77 -27 -96 -28 -260 0 -97 3 -179 7 -183 3 -3 15 -1 26 6 19 12 20
20 15 100 -11 167 33 337 124 475 8 14 17 23 19 21 2 -2 -7 -57 -21 -123 -27
-128 -33 -280 -14 -346 11 -41 12 -42 38 -29 16 9 17 18 8 83 -10 85 -3 228
14 276 14 42 22 34 26 -26 8 -104 45 -230 73 -247 22 -13 33 11 21 45 -15 43
-27 198 -14 185 5 -5 18 -32 28 -59 10 -27 33 -65 50 -85 l33 -35 43 29 c24
16 52 34 61 40 9 5 53 32 97 58 45 27 84 53 87 58 3 5 10 9 15 9 11 0 -9 -26
-102 -131 -97 -109 -99 -112 -90 -145 5 -17 14 -28 22 -25 93 23 221 67 224
75 39 163 143 241 273 206 70 -18 162 -118 162 -175 0 -8 4 -15 9 -15 14 0 81
79 81 95 0 18 -54 127 -82 168 -31 43 -1 31 51 -21 28 -28 52 -62 56 -80 7
-35 16 -40 34 -18 10 11 9 22 -4 47 -29 54 -101 163 -118 178 -35 29 -15 31
21 2 65 -51 119 -109 137 -147 15 -32 19 -35 32 -21 14 14 10 23 -38 94 -30
43 -93 117 -140 166 -47 48 -84 87 -83 87 2 0 29 -16 59 -36 73 -46 172 -144
220 -217 34 -51 40 -56 53 -43 13 13 9 22 -31 79 -98 137 -272 271 -424 326
-133 49 -260 60 -405 36z"/>
<path d="M2603 2104 c-43 -22 -55 -73 -26 -112 16 -22 28 -27 63 -27 35 0 47
5 63 27 30 40 17 91 -27 112 -41 19 -34 19 -73 0z"/>
<path d="M3041 2017 c-157 -133 -251 -293 -251 -428 l0 -48 -135 -110 c-75
-60 -132 -112 -128 -114 5 -3 42 -23 83 -45 l76 -41 133 71 c116 63 132 74
126 92 -3 12 -8 55 -11 96 -5 74 -5 75 13 50 91 -125 109 -137 83 -53 -19 64
-31 153 -21 153 4 0 17 -18 30 -40 24 -43 91 -105 122 -113 20 -5 25 3 10 19
-18 18 -82 156 -101 218 -23 72 -37 176 -24 176 5 0 26 -37 48 -82 21 -45 56
-105 76 -134 46 -61 125 -132 156 -140 14 -4 55 7 104 27 l81 32 -63 31 c-74
36 -201 157 -240 228 -29 52 -52 112 -68 176 -6 23 -14 42 -18 42 -4 -1 -40
-29 -81 -63z"/>
<path d="M830 261 c0 -5 5 -13 10 -16 6 -3 10 -2 10 4 0 5 -4 13 -10 16 -5 3
-10 2 -10 -4z"/>
<path d="M1290 3460 c0 -5 5 -10 11 -10 5 0 7 5 4 10 -3 6 -8 10 -11 10 -2 0
-4 -4 -4 -10z"/>
<path d="M1058 502 c-10 -38 -3 -77 15 -80 10 -2 17 3 17 12 0 9 4 16 10 16 5
0 7 8 3 18 -5 16 -5 16 8 -1 12 -14 19 -16 39 -8 14 5 19 10 13 10 -7 1 -13 6
-13 11 0 6 3 9 8 8 4 -2 9 1 12 6 6 12 -59 16 -66 4 -3 -5 -10 -5 -16 -2 -6 4
-8 2 -4 -4 3 -6 1 -14 -5 -18 -8 -5 -10 1 -7 20 6 29 -7 36 -14 8z m17 -51 c3
-5 1 -12 -5 -16 -5 -3 -10 1 -10 9 0 18 6 21 15 7z"/>
<path d="M845 501 c-3 -5 -1 -12 5 -16 5 -3 10 1 10 9 0 18 -6 21 -15 7z"/>
<path d="M1344 488 l-19 -23 23 19 c12 11 22 21 22 23 0 8 -8 2 -26 -19z"/>
<path d="M780 475 c-7 -9 -8 -15 -2 -15 5 0 12 7 16 15 3 8 4 15 2 15 -2 0 -9
-7 -16 -15z"/>
<path d="M812 450 c0 -14 2 -19 5 -12 2 6 2 18 0 25 -3 6 -5 1 -5 -13z"/>
<path d="M860 460 c-8 -5 -18 -6 -22 -4 -4 3 -8 0 -8 -6 0 -8 9 -10 26 -6 16
4 23 3 20 -3 -4 -5 3 -9 14 -8 25 2 25 9 2 24 -11 6 -24 8 -32 3z"/>
<path d="M1198 458 c10 -13 10 -17 0 -21 -9 -4 -9 -6 -1 -6 20 -2 24 16 5 30
-15 13 -16 12 -4 -3z"/>
<path d="M935 440 c3 -5 8 -10 11 -10 2 0 4 5 4 10 0 6 -5 10 -11 10 -5 0 -7
-4 -4 -10z"/>
<path d="M598 423 c7 -3 16 -2 19 1 4 3 -2 6 -13 5 -11 0 -14 -3 -6 -6z"/>
<path d="M644 414 c-18 -14 -18 -15 4 -4 12 6 22 13 22 15 0 8 -5 6 -26 -11z"/>
<path d="M1375 419 c-4 -6 -5 -12 -2 -15 2 -3 7 2 10 11 7 17 1 20 -8 4z"/>
<path d="M321 404 c0 -11 3 -14 6 -6 3 7 2 16 -1 19 -3 4 -6 -2 -5 -13z"/>
<path d="M1010 390 c0 -11 5 -20 10 -20 6 0 10 9 10 20 0 11 -4 20 -10 20 -5
0 -10 -9 -10 -20z"/>
<path d="M1320 380 c0 -5 5 -10 10 -10 6 0 10 5 10 10 0 6 -4 10 -10 10 -5 0
-10 -4 -10 -10z"/>
<path d="M1373 382 c-10 -7 -10 -12 0 -26 12 -16 13 -16 13 8 0 14 0 26 0 26
-1 0 -7 -4 -13 -8z"/>
<path d="M1926 379 c4 -7 44 0 44 7 0 2 -11 3 -24 2 -14 -1 -23 -5 -20 -9z"/>
<path d="M66 358 c-9 -35 -8 -38 19 -36 14 1 25 6 25 11 0 5 -8 7 -18 5 -15
-4 -18 -1 -14 18 6 30 -4 31 -12 2z"/>
<path d="M848 373 c7 -3 16 -2 19 1 4 3 -2 6 -13 5 -11 0 -14 -3 -6 -6z"/>
<path d="M157 355 c3 -8 9 -12 14 -9 12 7 11 11 -5 17 -10 4 -13 1 -9 -8z"/>
<path d="M1250 356 c0 -8 -3 -23 -6 -33 -6 -15 -4 -16 6 -6 15 14 21 53 8 53
-4 0 -8 -6 -8 -14z"/>
<path d="M1965 352 c-5 -4 -19 -18 -30 -32 l-20 -25 21 18 c11 9 24 15 27 12
4 -3 5 -2 2 2 -3 3 0 12 6 20 13 14 10 17 -6 5z"/>
<path d="M1869 347 c0 -1 -3 -15 -5 -31 -3 -16 -13 -36 -22 -43 -14 -11 -15
-12 -1 -8 9 3 26 19 38 36 12 16 26 27 31 24 5 -3 12 -1 15 5 4 6 3 10 -2 9
-4 -1 -10 0 -13 1 -9 3 -40 8 -41 7z"/>
<path d="M1350 309 c0 -5 5 -7 10 -4 6 3 10 8 10 11 0 2 -4 4 -10 4 -5 0 -10
-5 -10 -11z"/>
<path d="M160 284 c0 -14 4 -23 9 -20 5 3 7 15 4 26 -7 28 -13 25 -13 -6z"/>
<path d="M601 294 c0 -11 3 -14 6 -6 3 7 2 16 -1 19 -3 4 -6 -2 -5 -13z"/>
<path d="M1245 300 c-16 -7 -17 -9 -3 -9 9 -1 20 4 23 9 7 11 7 11 -20 0z"/>
<path d="M197 293 c-10 -9 -9 -23 1 -23 5 0 9 7 9 15 0 17 -1 18 -10 8z"/>
<path d="M1327 294 c-4 -4 -4 -11 -1 -15 7 -12 34 -11 34 1 0 5 -7 6 -17 3
-11 -4 -14 -3 -9 5 8 13 3 16 -7 6z"/>
<path d="M51 278 c-26 -9 -24 -31 4 -36 12 -3 15 0 10 9 -6 9 -3 11 8 6 21 -8
29 4 13 19 -7 7 -20 8 -35 2z"/>
<path d="M1757 278 c-7 -20 -7 -28 0 -30 3 -2 8 7 9 20 4 24 -1 30 -9 10z"/>
<path d="M137 273 c-11 -10 -8 -20 7 -26 10 -4 12 0 9 14 -6 21 -7 22 -16 12z"/>
<path d="M313 258 c2 -16 -1 -28 -7 -29 -6 0 2 -5 18 -10 17 -4 31 -7 33 -6 6
7 -10 46 -18 42 -4 -3 -13 3 -19 12 -10 15 -11 14 -7 -9z"/>
<path d="M257 256 c-3 -8 1 -17 9 -20 24 -9 31 -7 14 4 -12 8 -12 10 5 10 17
0 17 2 5 10 -20 13 -27 12 -33 -4z"/>
<path d="M1690 248 c0 -4 9 -8 20 -8 11 0 20 4 20 8 0 4 -9 8 -20 8 -11 0 -20
-4 -20 -8z"/>
<path d="M79 223 c-12 -15 -12 -16 4 -10 10 4 26 7 35 7 15 0 15 2 2 10 -21
13 -25 13 -41 -7z"/>
<path d="M2135 221 c-3 -5 -2 -12 3 -15 5 -3 9 1 9 9 0 17 -3 19 -12 6z"/>
<path d="M95 200 c-3 -5 1 -10 9 -10 11 0 16 -9 16 -27 l0 -26 20 23 c11 13
20 27 20 32 0 13 -20 9 -20 -4 0 -7 -5 -5 -11 5 -11 19 -25 22 -34 7z"/>
<path d="M285 200 c3 -5 8 -10 11 -10 2 0 4 5 4 10 0 6 -5 10 -11 10 -5 0 -7
-4 -4 -10z"/>
<path d="M310 206 c0 -2 7 -7 16 -10 8 -3 12 -2 9 4 -6 10 -25 14 -25 6z"/>
<path d="M57 184 c-6 -10 9 -42 16 -34 3 3 1 14 -3 24 -3 11 -9 15 -13 10z"/>
<path d="M2258 173 c7 -3 16 -2 19 1 4 3 -2 6 -13 5 -11 0 -14 -3 -6 -6z"/>
<path d="M260 149 c0 -5 5 -7 10 -4 6 3 10 8 10 11 0 2 -4 4 -10 4 -5 0 -10
-5 -10 -11z"/>
<path d="M4221 151 c-11 -7 -11 -9 0 -14 8 -3 5 -6 -8 -6 -24 -1 -39 -16 -25
-25 13 -8 45 18 48 38 3 19 3 18 -15 7z"/>
<path d="M2350 139 c0 -5 5 -7 10 -4 6 3 10 8 10 11 0 2 -4 4 -10 4 -5 0 -10
-5 -10 -11z"/>
<path d="M5080 124 c0 -16 2 -16 24 -8 22 8 20 19 -4 21 -11 1 -20 -4 -20 -13z"/>
<path d="M3808 123 c7 -3 16 -2 19 1 4 3 -2 6 -13 5 -11 0 -14 -3 -6 -6z"/>
<path d="M3866 122 c-2 -4 -1 -14 4 -22 7 -11 9 -9 7 8 -1 24 -3 26 -11 14z"/>
<path d="M3107 103 c3 -7 9 -10 14 -7 14 8 11 21 -5 21 -8 0 -12 -6 -9 -14z"/>
<path d="M2535 90 c3 -5 8 -10 11 -10 2 0 4 5 4 10 0 6 -5 10 -11 10 -5 0 -7
-4 -4 -10z"/>
<path d="M3518 93 c7 -3 16 -2 19 1 4 3 -2 6 -13 5 -11 0 -14 -3 -6 -6z"/>
<path d="M4450 96 c0 -2 7 -6 15 -10 8 -3 15 -1 15 4 0 6 -7 10 -15 10 -8 0
-15 -2 -15 -4z"/>
<path d="M2676 82 c-3 -5 1 -9 9 -9 8 0 15 4 15 9 0 10 -17 10 -24 0z"/>
</g>
</svg>
